grf
version=1
nRows=47
nColumns=19
inDegrees=yes
endheader
time	ground_force_1_vx	ground_force_1_vy	ground_force_1_vz	ground_force_1_px	ground_force_1_py	ground_force_1_pz	ground_moment_1_mx	ground_moment_1_my	ground_moment_1_mz	ground_force_2_vx	ground_force_2_vy	ground_force_2_vz	ground_force_2_px	ground_force_2_py	ground_force_2_pz	ground_moment_2_mx	ground_moment_2_my	ground_moment_2_mz
3.842000	25.994118	1271.210726	-365.965880	0.138111	0.000000	-0.777202	0.000000	9.206938	0.000000	-18.716032	1275.312884	404.240327	0.163957	0.000000	-1.573883	0.000000	-9.608588	0.000000
3.843000	26.485194	1273.700385	-366.630057	0.138847	0.000000	-0.774278	0.000000	9.250401	0.000000	-18.959651	1276.717941	404.120764	0.163221	0.000000	-1.573865	0.000000	-9.581855	0.000000
3.844000	26.990526	1276.094180	-367.283876	0.138046	0.000000	-0.774126	0.000000	9.294218	0.000000	-19.178798	1278.156317	404.007228	0.164336	0.000000	-1.573552	0.000000	-9.555509	-0.000000
3.845000	27.507221	1278.388459	-367.926149	0.137974	0.000000	-0.773828	0.000000	9.338279	0.000000	-19.373841	1279.625480	403.902469	0.164375	0.000000	-1.573425	-0.000000	-9.529649	-0.000000
3.846000	28.032396	1280.580659	-368.555614	0.137786	0.000000	-0.773971	0.000000	9.382439	0.000000	-19.545017	1281.121773	403.808603	0.164211	0.000000	-1.573290	-0.000000	-9.504401	-0.000000
3.847000	28.563169	1282.668653	-369.171013	0.137703	0.000000	-0.774907	0.000000	9.426543	0.000000	-19.692381	1282.641216	403.727018	0.164129	0.000000	-1.573499	-0.000000	-9.479891	-0.000000
3.848000	29.096679	1284.650250	-369.771067	0.137528	0.000000	-0.774759	0.000000	9.470427	0.000000	-19.815768	1284.179545	403.658335	0.163592	0.000000	-1.574820	-0.000000	-9.456234	-0.000000
3.849000	29.630159	1286.523431	-370.354405	0.137581	0.000000	-0.774315	0.000000	9.513919	0.000000	-19.914795	1285.731440	403.602451	0.163980	0.000000	-1.573141	-0.000000	-9.433567	-0.000000
3.850000	30.160983	1288.286763	-370.919590	0.137734	0.000000	-0.773639	0.000000	9.556841	0.000000	-19.988870	1287.290082	403.558607	0.164263	0.000000	-1.573967	-0.000000	-9.412055	-0.000000
3.851000	30.686576	1289.939613	-371.465111	0.137384	0.000000	-0.774300	0.000000	9.599005	0.000000	-20.037193	1288.847863	403.525378	0.164323	0.000000	-1.573404	-0.000000	-9.391866	-0.000000
3.852000	31.204344	1291.482477	-371.989287	0.136694	0.000000	-0.774182	0.000000	9.640203	0.000000	-20.058767	1290.397282	403.500652	0.163471	0.000000	-1.573833	-0.000000	-9.373135	-0.000000
3.853000	31.711807	1292.916996	-372.490182	0.137248	0.000000	-0.773834	0.000000	9.680208	0.000000	-20.052426	1291.930820	403.481682	0.163691	0.000000	-1.572359	-0.000000	-9.355954	-0.000000
3.854000	32.206763	1294.245085	-372.965722	0.136993	0.000000	-0.774447	0.000000	9.718799	0.000000	-20.016838	1293.440295	403.465182	0.163308	0.000000	-1.573734	-0.000000	-9.340376	-0.000000
3.855000	32.687329	1295.468209	-373.413880	0.137358	0.000000	-0.773365	0.000000	9.755779	0.000000	-19.950514	1294.916904	403.447419	0.164139	0.000000	-1.573986	-0.000000	-9.326427	-0.000000
3.856000	33.151938	1296.587635	-373.832795	0.136269	0.000000	-0.776224	0.000000	9.790990	0.000000	-19.851882	1296.352030	403.424310	0.162830	0.000000	-1.573576	-0.000000	-9.314119	-0.000000
3.857000	33.599299	1297.604912	-374.220829	0.136649	0.000000	-0.774085	0.000000	9.824334	0.000000	-19.719343	1297.737761	403.391569	0.162971	0.000000	-1.572949	-0.000000	-9.303462	-0.000000
3.858000	34.028357	1298.522145	-374.576556	0.136756	0.000000	-0.774411	0.000000	9.855789	0.000000	-19.551327	1299.066610	403.344852	0.162980	0.000000	-1.573412	-0.000000	-9.294484	-0.000000
3.859000	34.438302	1299.342272	-374.898712	0.136917	0.000000	-0.774387	0.000000	9.885364	0.000000	-19.346350	1300.331170	403.279846	0.162309	0.000000	-1.574410	-0.000000	-9.287251	-0.000000
3.860000	34.828591	1300.069379	-375.186198	0.136735	0.000000	-0.773897	0.000000	9.913072	0.000000	-19.102954	1301.524003	403.192369	0.162967	0.000000	-1.573155	-0.000000	-9.281892	-0.000000
3.861000	35.198934	1300.708816	-375.438121	0.136216	0.000000	-0.773540	0.000000	9.938925	0.000000	-18.819653	1302.637652	403.078516	0.162675	0.000000	-1.572972	-0.000000	-9.278605	-0.000000
3.862000	35.549223	1301.266846	-375.653791	0.136685	0.000000	-0.773875	0.000000	9.962946	0.000000	-18.495037	1303.665153	402.934723	0.163215	0.000000	-1.572682	-0.000000	-9.277634	-0.000000
3.863000	35.879512	1301.750149	-375.832784	0.137042	0.000000	-0.774052	-0.000000	9.985166	0.000000	-18.127909	1304.600795	402.757763	0.163309	0.000000	-1.572804	-0.000000	-9.279227	-0.000000
3.864000	36.190108	1302.165648	-375.975114	0.136059	0.000000	-0.773428	-0.000000	10.005606	0.000000	-17.717341	1305.440345	402.544797	0.162304	0.000000	-1.572894	-0.000000	-9.283598	-0.000000
3.865000	36.481633	1302.520523	-376.081350	0.136747	0.000000	-0.774823	-0.000000	10.024265	0.000000	-17.262658	1306.180719	402.293524	0.161921	0.000000	-1.572623	-0.000000	-9.290920	-0.000000
3.866000	36.754964	1302.822222	-376.152496	0.136022	0.000000	-0.774162	-0.000000	10.041128	0.000000	-16.763480	1306.819488	402.002315	0.162555	0.000000	-1.572237	-0.000000	-9.301362	-0.000000
3.867000	37.011136	1303.078316	-376.189804	0.137060	0.000000	-0.776480	-0.000000	10.056191	0.000000	-16.219826	1307.354574	401.670227	0.162300	0.000000	-1.572274	-0.000000	-9.315087	-0.000000
3.868000	37.251257	1303.296139	-376.194638	0.136419	0.000000	-0.774142	-0.000000	10.069468	0.000000	-15.632195	1307.784295	401.296893	0.162489	0.000000	-1.572523	-0.000000	-9.332221	-0.000000
3.869000	37.476445	1303.482474	-376.168334	0.136787	0.000000	-0.774469	-0.000000	10.081001	0.000000	-15.001578	1308.107689	400.882478	0.162195	0.000000	-1.572317	-0.000000	-9.352812	-0.000000
3.870000	37.687822	1303.643517	-376.112110	0.136642	0.000000	-0.775162	-0.000000	10.090840	0.000000	-14.329451	1308.325004	400.427738	0.162334	0.000000	-1.571934	0.000000	-9.376826	-0.000000
3.871000	37.886507	1303.784965	-376.027143	0.136280	0.000000	-0.774538	-0.000000	10.099028	0.000000	-13.617777	1308.438143	399.934086	0.161700	0.000000	-1.572339	0.000000	-9.404148	-0.000000
3.872000	38.073619	1303.911764	-375.914693	0.136216	0.000000	-0.772271	-0.000000	10.105602	0.000000	-12.868935	1308.450855	399.403542	0.161751	0.000000	-1.572435	0.000000	-9.434603	-0.000000
3.873000	38.250285	1304.027378	-375.776158	0.134090	0.000000	-0.772853	-0.000000	10.110602	0.000000	-12.085583	1308.368637	398.838688	0.161317	0.000000	-1.572078	0.000000	-9.467970	-0.000000
3.874000	38.417647	1304.133304	-375.613103	0.136368	0.000000	-0.774929	-0.000000	10.114104	0.000000	-11.270573	1308.198337	398.242666	0.161407	0.000000	-1.571506	0.000000	-9.504007	-0.000000
3.875000	38.576853	1304.229745	-375.427283	0.136166	0.000000	-0.776117	-0.000000	10.116248	0.000000	-10.427028	1307.947580	397.619182	0.161092	0.000000	-1.571846	0.000000	-9.542443	-0.000000
3.876000	38.729057	1304.317223	-375.220580	0.136047	0.000000	-0.774663	-0.000000	10.117195	0.000000	-9.558446	1307.624339	396.972473	0.160555	0.000000	-1.571443	0.000000	-9.582971	-0.000000
3.877000	38.875435	1304.397585	-374.994941	0.135874	0.000000	-0.775226	-0.000000	10.117092	0.000000	-8.668618	1307.236711	396.307258	0.160917	0.000000	-1.570577	0.000000	-9.625272	-0.000000
3.878000	39.017144	1304.473877	-374.752396	0.135661	0.000000	-0.773913	-0.000000	10.116054	0.000000	-7.761424	1306.792500	395.628637	0.160566	0.000000	-1.571445	0.000000	-9.669051	-0.000000
3.879000	39.155292	1304.549792	-374.495103	0.135911	0.000000	-0.773903	-0.000000	10.114169	0.000000	-6.840734	1306.298756	394.941945	0.160402	0.000000	-1.571053	0.000000	-9.714041	-0.000000
3.880000	39.290915	1304.629123	-374.225354	0.135663	0.000000	-0.773486	-0.000000	10.111480	0.000000	-5.910410	1305.761849	394.252598	0.160465	0.000000	-1.571782	0.000000	-9.759980	-0.000000
3.881000	39.424955	1304.715406	-373.945588	0.135372	0.000000	-0.774069	-0.000000	10.107997	0.000000	-4.974256	1305.187813	393.565962	0.159465	0.000000	-1.572198	0.000000	-9.806610	-0.000000
3.882000	39.558256	1304.812143	-373.658396	0.135494	0.000000	-0.776388	-0.000000	10.103699	0.000000	-4.035966	1304.582348	392.887238	0.159188	0.000000	-1.571349	0.000000	-9.853691	-0.000000
3.883000	39.691610	1304.923397	-373.366506	0.135823	0.000000	-0.771913	-0.000000	10.098543	0.000000	-3.099096	1303.950611	392.221323	0.160820	0.000000	-1.572006	0.000000	-9.901037	-0.000000
3.884000	39.825750	1305.053862	-373.072815	0.135404	0.000000	-0.777671	-0.000000	10.092465	0.000000	-2.166959	1303.297417	391.572687	0.159771	0.000000	-1.571862	0.000000	-9.948511	-0.000000
3.885000	39.961235	1305.208732	-372.780483	0.135687	0.000000	-0.774856	-0.000000	10.085370	0.000000	-1.242499	1302.627683	390.945282	0.159081	0.000000	-1.571044	0.000000	-9.995991	-0.000000
3.886000	40.098393	1305.394109	-372.492943	0.135181	0.000000	-0.774788	-0.000000	10.077138	0.000000	-0.328250	1301.946308	390.342452	0.159029	0.000000	-1.571389	0.000000	-10.043369	-0.000000
3.887000	40.237381	1305.617268	-372.213792	0.135359	0.000000	-0.773703	-0.000000	10.067620	0.000000	0.573627	1301.257795	389.766794	0.159465	0.000000	-1.571113	0.000000	-10.090567	-0.000000
3.888000	40.378243	1305.886194	-371.946674	0.134878	0.000000	-0.774750	-0.000000	10.056655	0.000000	1.461333	1300.566328	389.220053	0.158708	0.000000	-1.570969	0.000000	-10.137528	-0.000000
